<svg width="488" height="489" viewBox="0 0 488 489" fill="none" xmlns="http://www.w3.org/2000/svg">
<path fill-rule="evenodd" clip-rule="evenodd" d="M241.285 0.400916C242.093 0.604858 243.215 0.591219 243.778 0.371218C244.34 0.151218 243.679 -0.0149861 242.308 0.00107238C240.936 0.0171308 240.476 0.196974 241.285 0.400916ZM235.089 1.19581C235.688 1.42786 236.405 1.39896 236.681 1.13239C236.957 0.865816 236.466 0.676319 235.59 0.710845C234.622 0.749385 234.425 0.939681 235.089 1.19581ZM249.216 1.19581C249.815 1.42786 250.532 1.39896 250.808 1.13239C251.084 0.865816 250.594 0.676319 249.718 0.710845C248.75 0.749385 248.553 0.939681 249.216 1.19581ZM255.258 2.55275C256.113 3.29224 261.006 5.46414 261.006 5.10443C261.006 4.64195 256.399 2.25326 255.507 2.25326C255.179 2.25326 255.067 2.38815 255.258 2.55275ZM214.845 11.2861C211.56 14.6985 211.56 14.6985 215.092 11.5246C218.376 8.57306 219.006 7.87371 218.377 7.87371C218.241 7.87371 216.651 9.4089 214.845 11.2861ZM266.823 8.92795C266.823 9.06606 268.038 10.2407 269.524 11.5374C272.225 13.8956 272.225 13.8956 269.784 11.2861C267.509 8.85408 266.823 8.30729 266.823 8.92795ZM203.796 32.7643C203.796 33.8683 203.985 34.3203 204.215 33.7679C204.446 33.2163 204.446 32.313 204.215 31.7606C203.985 31.209 203.796 31.6603 203.796 32.7643ZM280.251 32.7643C280.251 33.8683 280.439 34.3203 280.67 33.7679C280.901 33.2163 280.901 32.313 280.67 31.7606C280.439 31.209 280.251 31.6603 280.251 32.7643ZM280.282 42.8008C280.298 44.1256 280.484 44.5704 280.695 43.7892C280.906 43.008 280.892 41.924 280.665 41.3804C280.437 40.8369 280.265 41.476 280.282 42.8008ZM203.796 43.2023C203.796 44.3063 203.985 44.7583 204.215 44.2059C204.446 43.6543 204.446 42.751 204.215 42.1986C203.985 41.647 203.796 42.0983 203.796 43.2023ZM286.358 56.0402C286.067 56.4946 286.4 56.6295 287.14 56.3557C288.579 55.8218 288.843 55.2461 287.648 55.2461C287.217 55.2461 286.637 55.6034 286.358 56.0402ZM290.767 56.5974C291.367 56.8295 292.084 56.8006 292.36 56.534C292.636 56.2674 292.145 56.0779 291.269 56.1124C290.301 56.151 290.104 56.3413 290.767 56.5974ZM294.923 57.4003C295.522 57.6324 296.239 57.6035 296.515 57.3369C296.791 57.0703 296.3 56.8808 295.424 56.9154C294.456 56.9539 294.259 57.1442 294.923 57.4003ZM301.571 59.0062C302.17 59.2382 302.887 59.2093 303.163 58.9427C303.439 58.6762 302.949 58.4867 302.073 58.5212C301.105 58.5597 300.908 58.75 301.571 59.0062ZM202.834 64.3817C202.834 64.5479 203.489 65.1806 204.288 65.7868C205.606 66.7849 205.635 66.7568 204.602 65.4833C203.516 64.1457 202.834 63.7209 202.834 64.3817ZM217.792 66.7905C217.792 66.9567 218.447 67.5894 219.247 68.1956C220.565 69.1936 220.594 69.1655 219.561 67.8921C218.475 66.5544 217.792 66.1297 217.792 66.7905ZM275.517 70.7023C271.394 74.9177 271.394 74.9177 275.757 70.9336C279.81 67.2305 280.501 66.487 279.88 66.487C279.749 66.487 277.786 68.3843 275.517 70.7023ZM208.236 70.5016C210.021 72.268 211.669 73.7133 211.897 73.7133C212.126 73.7133 210.852 72.268 209.067 70.5016C207.282 68.7352 205.634 67.2899 205.405 67.2899C205.177 67.2899 206.45 68.7352 208.236 70.5016ZM344.109 74.0738C344.109 74.2946 345.23 75.0357 346.602 75.7206C347.973 76.4055 349.095 76.7853 349.095 76.5645C349.095 76.3437 347.973 75.6026 346.602 74.9177C345.23 74.2328 344.109 73.853 344.109 74.0738ZM239.607 75.1007C241.321 75.2742 244.126 75.2742 245.84 75.1007C247.554 74.9281 246.151 74.786 242.723 74.786C239.295 74.786 237.893 74.9281 239.607 75.1007ZM231.712 83.077C232.284 83.3002 233.219 83.3002 233.79 83.077C234.361 82.8545 233.894 82.6723 232.751 82.6723C231.608 82.6723 231.141 82.8545 231.712 83.077ZM239.213 83.9369C241.168 84.1071 244.159 84.1047 245.861 83.9321C247.563 83.7594 245.964 83.6205 242.308 83.6237C238.651 83.6262 237.258 83.7675 239.213 83.9369ZM136.688 86.7608C135.105 88.5673 135.105 88.5673 136.975 87.0378C138.732 85.6006 139.223 84.9542 138.558 84.9542C138.4 84.9542 137.559 85.7668 136.688 86.7608ZM131.321 91.1768C128.457 94.1878 128.457 94.1878 131.573 91.4209C133.288 89.8986 134.69 88.544 134.69 88.41C134.69 87.7965 133.987 88.3746 131.321 91.1768ZM377.35 93.2869C377.35 93.4531 378.005 94.0858 378.804 94.692C380.122 95.6901 380.151 95.662 379.118 94.3885C378.032 93.0509 377.35 92.6261 377.35 93.2869ZM380.674 95.6957C380.674 95.8619 381.329 96.4946 382.128 97.1008C383.446 98.0988 383.475 98.0707 382.442 96.7973C381.356 95.4596 380.674 95.0349 380.674 95.6957ZM383.998 98.1044C383.998 98.2706 384.653 98.9033 385.452 99.5096C386.77 100.508 386.799 100.479 385.766 99.2061C384.68 97.8684 383.998 97.4436 383.998 98.1044ZM389.4 102.618C390.226 103.502 391.091 104.224 391.319 104.224C391.548 104.224 391.058 103.502 390.231 102.618C389.404 101.735 388.539 101.013 388.311 101.013C388.082 101.013 388.573 101.735 389.4 102.618ZM116.344 105.629C114.329 107.837 114.329 107.837 116.615 105.891C117.871 104.82 118.9 103.827 118.9 103.683C118.9 103.053 118.227 103.566 116.344 105.629ZM394.801 107.035C395.875 108.139 396.94 109.042 397.169 109.042C397.397 109.042 396.706 108.139 395.632 107.035C394.559 105.931 393.493 105.027 393.265 105.027C393.036 105.027 393.728 105.931 394.801 107.035ZM112.145 110.447C111.113 111.72 111.142 111.748 112.46 110.75C113.259 110.144 113.914 109.512 113.914 109.345C113.914 108.685 113.232 109.109 112.145 110.447ZM404.358 115.465C406.609 117.673 408.638 119.48 408.866 119.48C409.095 119.48 407.44 117.673 405.189 115.465C402.938 113.257 400.909 111.451 400.681 111.451C400.452 111.451 402.107 113.257 404.358 115.465ZM108.821 114.462C107.788 115.735 107.817 115.763 109.135 114.765C109.935 114.159 110.59 113.526 110.59 113.36C110.59 112.699 109.908 113.124 108.821 114.462ZM106.328 117.673C105.295 118.947 105.324 118.975 106.642 117.977C107.442 117.371 108.097 116.738 108.097 116.572C108.097 115.911 107.414 116.336 106.328 117.673ZM412.253 123.746C412.253 123.884 413.468 125.059 414.954 126.355C417.655 128.713 417.655 128.713 415.214 126.104C412.938 123.672 412.253 123.125 412.253 123.746ZM419.317 131.524C420.143 132.407 421.008 133.13 421.236 133.13C421.465 133.13 420.975 132.407 420.148 131.524C419.321 130.64 418.456 129.918 418.228 129.918C417.999 129.918 418.49 130.64 419.317 131.524ZM296.959 134.509C298.223 134.693 300.092 134.688 301.115 134.498C302.137 134.307 301.103 134.156 298.818 134.162C296.532 134.168 295.696 134.324 296.959 134.509ZM281.989 135.289C282.789 135.491 284.098 135.491 284.898 135.289C285.697 135.087 285.043 134.922 283.444 134.922C281.844 134.922 281.19 135.087 281.989 135.289ZM311.922 135.292C312.731 135.496 313.853 135.482 314.415 135.262C314.978 135.042 314.316 134.876 312.945 134.892C311.574 134.908 311.113 135.088 311.922 135.292ZM422.225 135.039C422.225 135.205 422.88 135.838 423.68 136.444C424.998 137.442 425.027 137.414 423.994 136.14C422.907 134.803 422.225 134.378 422.225 135.039ZM274.926 136.07C275.497 136.293 276.432 136.293 277.003 136.07C277.575 135.847 277.107 135.665 275.964 135.665C274.822 135.665 274.355 135.847 274.926 136.07ZM319.853 136.087C320.453 136.319 321.17 136.29 321.446 136.023C321.722 135.757 321.231 135.567 320.355 135.602C319.387 135.64 319.19 135.831 319.853 136.087ZM270.823 136.89C271.422 137.122 272.139 137.093 272.415 136.826C272.691 136.56 272.201 136.37 271.325 136.405C270.357 136.443 270.16 136.633 270.823 136.89ZM325.671 136.89C326.27 137.122 326.987 137.093 327.263 136.826C327.539 136.56 327.048 136.37 326.173 136.405C325.204 136.443 325.007 136.633 325.671 136.89ZM261.681 138.495C262.281 138.727 262.998 138.699 263.274 138.432C263.55 138.165 263.059 137.976 262.183 138.01C261.215 138.049 261.018 138.239 261.681 138.495ZM334.812 138.495C335.411 138.727 336.128 138.699 336.404 138.432C336.68 138.165 336.19 137.976 335.314 138.01C334.346 138.049 334.149 138.239 334.812 138.495ZM424.718 138.251C424.718 138.417 425.373 139.049 426.173 139.656C427.491 140.654 427.52 140.626 426.487 139.352C425.401 138.014 424.718 137.59 424.718 138.251ZM294.49 144.163C297.593 144.318 302.455 144.317 305.293 144.161C308.13 144.005 305.59 143.878 299.649 143.88C293.707 143.881 291.385 144.009 294.49 144.163ZM280.743 144.902C281.314 145.125 282.249 145.125 282.82 144.902C283.392 144.68 282.924 144.497 281.782 144.497C280.639 144.497 280.172 144.68 280.743 144.902ZM316.477 144.902C317.049 145.125 317.984 145.125 318.554 144.902C319.126 144.68 318.658 144.497 317.516 144.497C316.373 144.497 315.906 144.68 316.477 144.902ZM274.978 145.722C275.577 145.954 276.294 145.925 276.57 145.658C276.846 145.392 276.356 145.202 275.48 145.237C274.512 145.275 274.315 145.466 274.978 145.722ZM323.177 145.722C323.777 145.954 324.494 145.925 324.77 145.658C325.046 145.392 324.555 145.202 323.679 145.237C322.711 145.275 322.514 145.466 323.177 145.722ZM230.891 146.544C231.925 146.736 233.421 146.729 234.215 146.528C235.01 146.327 234.164 146.17 232.335 146.179C230.507 146.187 229.857 146.352 230.891 146.544ZM224.233 147.311C224.805 147.534 225.739 147.534 226.31 147.311C226.882 147.088 226.414 146.906 225.272 146.906C224.129 146.906 223.662 147.088 224.233 147.311ZM265.576 147.582C264.927 148.599 266.027 148.599 267.654 147.582C268.729 146.912 268.706 146.802 267.495 146.791C266.722 146.785 265.859 147.14 265.576 147.582ZM331.488 147.328C332.087 147.56 332.804 147.531 333.08 147.264C333.356 146.998 332.866 146.808 331.99 146.843C331.022 146.881 330.825 147.071 331.488 147.328ZM215.975 148.933C216.574 149.165 217.291 149.137 217.567 148.87C217.843 148.603 217.353 148.414 216.477 148.448C215.509 148.487 215.312 148.677 215.975 148.933ZM269.161 148.933C269.76 149.165 270.477 149.137 270.753 148.87C271.029 148.603 270.539 148.414 269.663 148.448C268.694 148.487 268.498 148.677 269.161 148.933ZM211.82 149.736C212.419 149.968 213.136 149.939 213.412 149.673C213.688 149.406 213.198 149.217 212.322 149.251C211.354 149.29 211.157 149.48 211.82 149.736ZM164.5 171.469C163.467 172.742 163.496 172.771 164.814 171.773C166.199 170.723 166.638 170.064 165.955 170.064C165.782 170.064 165.128 170.697 164.5 171.469ZM404.358 171.67C405.185 172.553 406.049 173.276 406.278 173.276C406.506 173.276 406.016 172.553 405.189 171.67C404.362 170.787 403.498 170.064 403.269 170.064C403.041 170.064 403.531 170.787 404.358 171.67ZM160.345 174.681C159.312 175.954 159.341 175.982 160.659 174.984C161.459 174.378 162.114 173.745 162.114 173.579C162.114 172.918 161.431 173.343 160.345 174.681ZM322.502 173.527C322.502 173.665 323.717 174.84 325.203 176.136C327.904 178.495 327.904 178.495 325.463 175.885C323.187 173.453 322.502 172.906 322.502 173.527ZM408.098 174.33C408.098 174.468 409.313 175.643 410.799 176.939C413.499 179.297 413.499 179.298 411.059 176.688C408.783 174.256 408.098 173.709 408.098 174.33ZM151.286 182.71C145.908 188.13 145.908 188.13 151.518 182.934C154.603 180.076 157.127 177.637 157.127 177.514C157.127 176.923 156.281 177.676 151.286 182.71ZM398.125 178.397C398.125 178.563 398.78 179.196 399.58 179.802C400.898 180.8 400.927 180.772 399.894 179.498C398.808 178.161 398.125 177.736 398.125 178.397ZM79.142 182.108C79.142 183.212 79.3307 183.664 79.5609 183.111C79.7919 182.56 79.7919 181.656 79.5609 181.104C79.3307 180.552 79.142 181.004 79.142 182.108ZM410.591 189.735C414.456 193.489 417.805 196.56 418.033 196.56C418.262 196.56 415.287 193.489 411.422 189.735C407.557 185.982 404.208 182.911 403.979 182.911C403.751 182.911 406.726 185.982 410.591 189.735ZM78.311 187.728C78.311 188.832 78.4996 189.284 78.7298 188.732C78.9608 188.18 78.9608 187.277 78.7298 186.725C78.4996 186.173 78.311 186.624 78.311 187.728ZM422.225 187.979C422.225 188.118 423.44 189.292 424.926 190.589C427.627 192.947 427.627 192.947 425.186 190.338C422.911 187.906 422.225 187.359 422.225 187.979ZM338.291 188.835C338.291 189.001 338.946 189.634 339.746 190.24C341.064 191.238 341.093 191.21 340.06 189.936C338.974 188.599 338.291 188.174 338.291 188.835ZM142.893 191.542C141.861 192.815 141.89 192.844 143.208 191.846C144.007 191.239 144.662 190.607 144.662 190.44C144.662 189.78 143.98 190.204 142.893 191.542ZM341.616 192.849C341.616 193.015 342.27 193.648 343.07 194.254C344.388 195.252 344.417 195.224 343.384 193.951C342.298 192.613 341.616 192.188 341.616 192.849ZM77.5747 196.56C77.5747 198.548 77.7367 199.361 77.9354 198.367C78.1331 197.373 78.1331 195.748 77.9354 194.754C77.7367 193.76 77.5747 194.573 77.5747 196.56ZM429.289 195.757C430.116 196.641 430.98 197.363 431.209 197.363C431.437 197.363 430.947 196.641 430.12 195.757C429.293 194.874 428.429 194.152 428.2 194.152C427.972 194.152 428.462 194.874 429.289 195.757ZM420.979 200.575C421.806 201.458 422.67 202.181 422.898 202.181C423.127 202.181 422.637 201.458 421.81 200.575C420.983 199.692 420.119 198.969 419.89 198.969C419.661 198.969 420.152 199.692 420.979 200.575ZM77.598 215.83C77.598 218.259 77.7534 219.252 77.9437 218.038C78.134 216.824 78.134 214.836 77.9437 213.622C77.7534 212.408 77.598 213.402 77.598 215.83ZM127.172 215.097C126.662 216.018 126.401 216.922 126.593 217.107C126.784 217.292 127.367 216.539 127.888 215.432C129.034 213.004 128.476 212.742 127.172 215.097ZM78.3417 225.064C78.3584 226.389 78.5445 226.834 78.7556 226.052C78.9667 225.271 78.9526 224.187 78.7249 223.644C78.4972 223.1 78.3251 223.739 78.3417 225.064ZM464.673 224.328C464.713 225.263 464.91 225.453 465.175 224.814C465.415 224.234 465.385 223.541 465.11 223.274C464.834 223.008 464.638 223.481 464.673 224.328ZM465.504 228.342C465.544 229.278 465.741 229.468 466.006 228.828C466.246 228.248 466.216 227.556 465.941 227.289C465.665 227.022 465.469 227.496 465.504 228.342ZM79.0764 230.751C79.1163 231.687 79.3132 231.877 79.5783 231.237C79.8185 230.657 79.7886 229.964 79.5127 229.698C79.2368 229.431 79.0406 229.905 79.0764 230.751ZM466.401 233.495C466.401 234.599 466.59 235.051 466.82 234.498C467.051 233.947 467.051 233.043 466.82 232.491C466.59 231.939 466.401 232.391 466.401 233.495ZM79.9074 235.569C79.9473 236.504 80.1443 236.694 80.4094 236.054C80.6495 235.475 80.6196 234.782 80.3437 234.515C80.0678 234.249 79.8717 234.722 79.9074 235.569ZM467.166 238.78C467.206 239.716 467.403 239.906 467.668 239.266C467.908 238.686 467.879 237.993 467.603 237.727C467.327 237.46 467.131 237.934 467.166 238.78ZM81.5695 242.795C81.6094 243.73 81.8063 243.921 82.0714 243.281C82.3116 242.701 82.2816 242.008 82.0057 241.742C81.7298 241.475 81.5337 241.949 81.5695 242.795ZM117.369 243.13C117.369 244.234 117.558 244.686 117.788 244.133C118.019 243.582 118.019 242.679 117.788 242.126C117.558 241.575 117.369 242.026 117.369 243.13ZM468.063 244.736C468.063 245.84 468.252 246.292 468.482 245.739C468.713 245.188 468.713 244.284 468.482 243.732C468.252 243.18 468.063 243.632 468.063 244.736ZM116.473 247.612C116.513 248.548 116.709 248.738 116.975 248.098C117.215 247.519 117.185 246.826 116.909 246.559C116.633 246.292 116.437 246.766 116.473 247.612ZM83.2315 248.415C83.2714 249.351 83.4684 249.541 83.7335 248.901C83.9736 248.321 83.9437 247.629 83.6678 247.362C83.3919 247.095 83.1958 247.569 83.2315 248.415ZM367.443 248.415C367.483 249.351 367.68 249.541 367.945 248.901C368.185 248.321 368.155 247.629 367.879 247.362C367.603 247.095 367.407 247.569 367.443 248.415ZM469 253.166C469.007 255.374 469.168 256.182 469.359 254.962C469.55 253.741 469.545 251.935 469.348 250.947C469.151 249.959 468.995 250.958 469 253.166ZM115.738 252.363C115.755 253.688 115.941 254.133 116.152 253.352C116.363 252.571 116.349 251.487 116.121 250.943C115.893 250.399 115.721 251.039 115.738 252.363ZM368.274 254.036C368.314 254.971 368.511 255.162 368.776 254.522C369.016 253.942 368.986 253.249 368.71 252.982C368.434 252.716 368.238 253.19 368.274 254.036ZM114.938 259.188C114.938 260.734 115.109 261.366 115.317 260.593C115.527 259.821 115.527 258.556 115.317 257.783C115.109 257.011 114.938 257.643 114.938 259.188ZM369.249 261.998C369.258 263.765 369.428 264.393 369.627 263.394C369.826 262.395 369.818 260.95 369.61 260.182C369.403 259.415 369.24 260.232 369.249 261.998ZM463.842 266.08C463.882 267.015 464.079 267.205 464.344 266.565C464.584 265.986 464.554 265.293 464.279 265.026C464.003 264.76 463.806 265.233 463.842 266.08ZM464.673 270.094C464.713 271.03 464.91 271.22 465.175 270.58C465.415 270 465.385 269.307 465.11 269.041C464.834 268.774 464.638 269.248 464.673 270.094ZM465.504 274.912C465.544 275.847 465.741 276.038 466.006 275.398C466.246 274.818 466.216 274.125 465.941 273.858C465.665 273.592 465.469 274.066 465.504 274.912ZM456.363 276.518C456.403 277.453 456.6 277.643 456.865 277.003C457.105 276.424 457.075 275.731 456.799 275.464C456.523 275.198 456.327 275.671 456.363 276.518ZM369.232 278.458C369.232 280.004 369.403 280.636 369.612 279.863C369.821 279.091 369.821 277.826 369.612 277.053C369.403 276.281 369.232 276.913 369.232 278.458ZM114.938 280.867C114.938 282.413 115.109 283.045 115.317 282.272C115.527 281.5 115.527 280.234 115.317 279.462C115.109 278.69 114.938 279.321 114.938 280.867ZM466.401 280.064C466.401 281.168 466.59 281.62 466.82 281.068C467.051 280.516 467.051 279.613 466.82 279.061C466.59 278.509 466.401 278.96 466.401 280.064ZM469 282.874C469.007 285.082 469.168 285.89 469.359 284.67C469.55 283.449 469.545 281.643 469.348 280.655C469.151 279.668 468.995 280.666 469 282.874ZM457.194 282.941C457.234 283.876 457.431 284.067 457.696 283.427C457.936 282.847 457.906 282.154 457.63 281.888C457.354 281.621 457.158 282.095 457.194 282.941ZM467.159 286.956C467.191 288.685 467.535 290.823 467.923 291.707C468.363 292.706 468.454 291.645 468.164 288.896C467.607 283.608 467.078 282.587 467.159 286.956ZM368.274 286.153C368.314 287.088 368.511 287.278 368.776 286.638C369.016 286.059 368.986 285.366 368.71 285.099C368.434 284.833 368.238 285.306 368.274 286.153ZM115.642 286.956C115.681 287.891 115.878 288.081 116.144 287.441C116.384 286.862 116.354 286.169 116.078 285.902C115.802 285.636 115.606 286.109 115.642 286.956ZM458.185 292.108C458.185 294.095 458.347 294.908 458.546 293.915C458.744 292.921 458.744 291.295 458.546 290.301C458.347 289.308 458.185 290.121 458.185 292.108ZM118.135 298.999C118.175 299.935 118.372 300.125 118.637 299.485C118.877 298.906 118.847 298.213 118.571 297.946C118.295 297.679 118.099 298.153 118.135 298.999ZM109.759 298.835C109.759 299.001 110.414 299.634 111.213 300.24C112.531 301.238 112.56 301.21 111.527 299.936C110.441 298.599 109.759 298.174 109.759 298.835ZM118.966 302.211C119.006 303.147 119.203 303.337 119.468 302.697C119.708 302.117 119.678 301.424 119.402 301.158C119.126 300.891 118.93 301.365 118.966 302.211ZM112.252 302.047C112.252 302.213 112.907 302.845 113.706 303.452C115.024 304.45 115.053 304.422 114.02 303.148C112.934 301.811 112.252 301.386 112.252 302.047ZM119.262 309.562C121.06 311.428 122.743 312.731 123.001 312.458C123.26 312.185 123.024 311.807 122.478 311.617C121.933 311.429 121.591 310.846 121.719 310.322C121.847 309.799 121.785 309.671 121.581 310.038C121.377 310.406 120.035 309.685 118.601 308.438C116.899 306.958 117.128 307.349 119.262 309.562ZM458.152 309.772C458.152 311.318 458.323 311.95 458.532 311.177C458.741 310.405 458.741 309.14 458.532 308.367C458.323 307.595 458.152 308.227 458.152 309.772ZM457.26 318.604C457.26 319.708 457.448 320.16 457.679 319.608C457.91 319.056 457.91 318.153 457.679 317.601C457.448 317.049 457.26 317.5 457.26 318.604ZM456.363 324.693C456.403 325.628 456.6 325.819 456.865 325.179C457.105 324.599 457.075 323.906 456.799 323.64C456.523 323.373 456.327 323.847 456.363 324.693ZM454.701 333.525C454.741 334.461 454.938 334.651 455.203 334.011C455.443 333.431 455.413 332.738 455.137 332.472C454.861 332.205 454.665 332.679 454.701 333.525ZM350.822 335.131C350.862 336.066 351.059 336.257 351.324 335.617C351.565 335.037 351.535 334.344 351.259 334.078C350.983 333.811 350.787 334.285 350.822 335.131ZM449.234 340.283C445.078 340.834 445.078 340.834 449.441 340.96C451.883 341.031 453.804 340.733 453.804 340.283C453.804 339.842 453.711 339.537 453.597 339.606C453.482 339.676 451.519 339.981 449.234 340.283ZM417.133 351.323C416.1 352.597 416.129 352.625 417.447 351.627C418.831 350.578 419.271 349.918 418.587 349.918C418.415 349.918 417.76 350.551 417.133 351.323ZM440.3 350.45C440.872 350.673 441.807 350.673 442.378 350.45C442.949 350.227 442.482 350.045 441.339 350.045C440.196 350.045 439.729 350.227 440.3 350.45ZM455.311 350.467C455.91 350.699 456.627 350.67 456.903 350.403C457.179 350.137 456.689 349.947 455.813 349.982C454.845 350.02 454.648 350.211 455.311 350.467ZM423.781 357.747C422.748 359.02 422.777 359.048 424.095 358.05C425.48 357.001 425.919 356.342 425.235 356.342C425.063 356.342 424.408 356.974 423.781 357.747ZM472.918 358.199C472.918 358.337 474.133 359.512 475.619 360.808C478.32 363.167 478.32 363.167 475.879 360.557C473.603 358.125 472.918 357.578 472.918 358.199ZM486.28 381.7C486.32 382.636 486.517 382.826 486.782 382.186C487.022 381.606 486.992 380.914 486.716 380.647C486.44 380.38 486.244 380.854 486.28 381.7ZM399.088 382.838C399.088 383.942 399.276 384.394 399.507 383.842C399.738 383.29 399.738 382.387 399.507 381.835C399.276 381.283 399.088 381.734 399.088 382.838ZM408.335 388.057C408.342 390.265 408.503 391.073 408.694 389.853C408.885 388.632 408.88 386.825 408.683 385.838C408.486 384.85 408.33 385.849 408.335 388.057ZM399.118 392.072C399.135 393.397 399.321 393.841 399.532 393.06C399.743 392.279 399.729 391.195 399.502 390.651C399.274 390.108 399.102 390.747 399.118 392.072ZM319.902 401.908C318.869 403.181 318.899 403.209 320.217 402.211C321.601 401.162 322.041 400.502 321.357 400.502C321.185 400.502 320.53 401.135 319.902 401.908ZM313.697 409.535C312.114 411.342 312.114 411.342 313.984 409.812C315.741 408.375 316.232 407.729 315.567 407.729C315.409 407.729 314.568 408.542 313.697 409.535ZM475.366 414.754C472.502 417.765 472.502 417.765 475.619 414.998C478.519 412.423 479.117 411.743 478.482 411.743C478.344 411.743 476.942 413.099 475.366 414.754ZM305.857 417.966C300.48 423.386 300.48 423.386 306.089 418.19C311.3 413.364 312.078 412.546 311.467 412.546C311.34 412.546 308.815 414.986 305.857 417.966ZM419.732 414.554C420.806 415.658 421.871 416.561 422.1 416.561C422.328 416.561 421.637 415.658 420.563 414.554C419.489 413.45 418.424 412.546 418.196 412.546C417.967 412.546 418.658 413.45 419.732 414.554ZM407.632 414.79C407.966 415.361 407.762 416.444 407.176 417.198C406.217 418.432 406.269 418.428 407.692 417.169C409.013 416 409.087 415.603 408.148 414.76C407.242 413.947 407.141 413.953 407.632 414.79ZM423.887 417.667C423.887 417.833 424.542 418.466 425.342 419.072C426.66 420.07 426.689 420.042 425.656 418.769C424.57 417.431 423.887 417.006 423.887 417.667ZM400.164 424.791C396.879 428.203 396.879 428.203 400.411 425.029C402.353 423.284 403.943 421.748 403.943 421.617C403.943 421.009 403.219 421.618 400.164 424.791ZM446.132 425.975C447.626 426.153 449.869 426.15 451.118 425.967C452.367 425.783 451.145 425.637 448.403 425.642C445.66 425.646 444.639 425.796 446.132 425.975ZM390.583 433.221C388.569 435.43 388.569 435.43 390.854 433.483C392.99 431.664 393.521 431.013 392.868 431.013C392.72 431.013 391.692 432.007 390.583 433.221ZM385.166 437.638C383.582 439.444 383.582 439.444 385.452 437.915C386.48 437.073 387.322 436.261 387.322 436.108C387.322 435.466 386.653 435.94 385.166 437.638ZM377.243 443.659C376.21 444.933 376.239 444.961 377.557 443.963C378.942 442.914 379.382 442.254 378.698 442.254C378.526 442.254 377.871 442.887 377.243 443.659ZM119.235 452.208C120.569 453.283 122.209 453.945 122.903 453.688C123.686 453.398 123.946 453.555 123.594 454.106C123.283 454.592 123.466 455.251 124.001 455.571C124.608 455.934 124.751 455.804 124.381 455.226C124.05 454.707 124.268 454.288 124.876 454.274C125.544 454.259 125.4 453.932 124.503 453.427C123.699 452.975 122.671 452.827 122.218 453.098C121.764 453.368 121.393 453.266 121.393 452.869C121.393 452.472 120.364 451.723 119.108 451.205C116.822 450.263 116.822 450.263 119.235 452.208ZM156.972 463.679C157.571 463.911 158.288 463.882 158.564 463.615C158.84 463.349 158.35 463.159 157.474 463.194C156.506 463.232 156.309 463.423 156.972 463.679ZM161.958 464.482C162.557 464.714 163.274 464.685 163.55 464.418C163.826 464.152 163.336 463.962 162.46 463.997C161.492 464.035 161.295 464.226 161.958 464.482ZM214.313 464.482C214.912 464.714 215.629 464.685 215.905 464.418C216.181 464.152 215.691 463.962 214.815 463.997C213.847 464.035 213.65 464.226 214.313 464.482ZM341.616 464.736C340.867 465.203 340.764 465.519 341.359 465.527C341.903 465.533 342.579 465.178 342.862 464.736C343.499 463.739 343.212 463.739 341.616 464.736ZM167.775 465.285C168.374 465.517 169.092 465.488 169.368 465.221C169.643 464.955 169.153 464.765 168.277 464.8C167.309 464.838 167.112 465.028 167.775 465.285ZM208.443 465.268C209.015 465.491 209.95 465.491 210.521 465.268C211.093 465.045 210.625 464.863 209.482 464.863C208.339 464.863 207.872 465.045 208.443 465.268ZM175.202 466.106C176.231 466.297 177.913 466.297 178.942 466.106C179.971 465.914 179.129 465.757 177.072 465.757C175.015 465.757 174.173 465.914 175.202 466.106ZM199.312 466.107C200.346 466.299 201.842 466.291 202.636 466.091C203.431 465.89 202.585 465.733 200.756 465.741C198.928 465.75 198.278 465.915 199.312 466.107ZM201.847 485.358C202.447 485.59 203.164 485.561 203.44 485.294C203.716 485.028 203.225 484.838 202.349 484.873C201.381 484.911 201.184 485.101 201.847 485.358ZM206.834 486.161C207.433 486.393 208.15 486.364 208.426 486.097C208.702 485.831 208.211 485.641 207.336 485.676C206.367 485.714 206.17 485.904 206.834 486.161ZM212.598 486.947C213.17 487.17 214.105 487.17 214.676 486.947C215.248 486.724 214.78 486.542 213.637 486.542C212.495 486.542 212.028 486.724 212.598 486.947ZM268.277 486.947C268.849 487.17 269.784 487.17 270.355 486.947C270.927 486.724 270.459 486.542 269.316 486.542C268.173 486.542 267.706 486.724 268.277 486.947ZM219.678 487.774C220.487 487.978 221.608 487.965 222.171 487.745C222.734 487.525 222.072 487.358 220.701 487.375C219.33 487.391 218.869 487.57 219.678 487.774ZM260.383 487.771C261.182 487.974 262.492 487.974 263.291 487.771C264.091 487.57 263.437 487.404 261.837 487.404C260.237 487.404 259.583 487.57 260.383 487.771ZM235.49 488.618C239.053 488.769 244.662 488.768 247.955 488.617C251.248 488.464 248.333 488.341 241.477 488.342C234.621 488.343 231.926 488.467 235.49 488.618Z" fill="#7E96BC"/>
<path fill-rule="evenodd" clip-rule="evenodd" d="M231.745 2.19703C219.767 5.31879 209.796 14.5677 205.717 26.3409C203.715 32.1195 203.646 42.8008 205.571 48.9536C208.904 59.6059 219.14 69.6585 229.936 72.8798C236.691 74.896 247.177 75.0534 253.583 73.2355C272.29 67.9266 283.822 49.1455 279.8 30.5354C275.176 9.13268 253.709 -3.527 231.745 2.19703ZM284.242 60.6658C280.473 67.1486 270.828 76.1068 264.261 79.2229C242.175 89.7059 215.714 82.7935 202.313 63.0408C200.153 59.8581 198.28 57.1169 198.15 56.9507C197.451 56.0546 179.999 62.5021 169.177 67.6536C153.636 75.0526 144.235 80.954 132.807 90.4863C109.773 109.7 93.2853 134.209 84.4498 162.371C71.3852 204.016 77.5589 249.492 101.215 285.857C106.694 294.28 115.569 305.571 119.668 309.332C122.25 311.702 122.25 311.702 120.575 307.001C119.655 304.414 117.921 297.41 116.724 291.438C114.732 281.51 114.581 279.366 114.963 266.471C115.721 240.804 121.991 221.215 135.928 200.976C156.875 170.555 191.961 150.239 230.258 146.354C233.229 146.052 240.147 144.391 245.632 142.663C295.006 127.104 347.665 133.842 390.307 161.178C401.559 168.391 410.105 175.362 420.594 185.88C446.074 211.432 461.27 242.527 467.014 280.867C468.518 290.904 468.518 290.904 469.182 278.86C470.702 251.322 465.887 220.556 455.845 193.638C440.941 153.687 415.137 120.506 379.012 94.8422C360.41 81.6269 339.048 70.7955 317.378 63.5925C309.579 60.9998 290.236 56.049 287.907 56.049C287.368 56.049 285.718 58.127 284.242 60.6658ZM122.002 453.595C122.567 454.144 123.237 454.391 123.492 454.143C123.748 453.896 123.287 453.447 122.468 453.145C121.283 452.71 121.188 452.802 122.002 453.595Z" fill="#0137A1"/>
<path fill-rule="evenodd" clip-rule="evenodd" d="M119.486 86.5606C102.575 96.0961 78.4291 117.03 64.5925 134.151C40.7511 163.65 25.5882 196.788 19.274 233.194C15.0699 257.43 15.1654 280.722 19.5724 305.819C21.3948 316.203 26.9569 336.47 28.909 339.839C29.4824 340.83 31.6763 341.148 39.5702 341.386C54.4722 341.837 62.1227 344.895 72.5271 354.563C81.5887 362.984 87.3585 376.007 87.307 387.927C87.2829 393.533 85.0175 402.049 81.774 408.727C79.8917 412.601 79.0158 415.283 79.5236 415.615C79.9806 415.914 82.9914 418.211 86.215 420.721C109.8 439.079 137.229 450.943 166.665 455.52C177.062 457.136 199.575 457.144 210.496 455.534C244.158 450.575 275.795 434.808 299.359 411.248C311.409 399.197 318.751 389.332 326.822 374.339C331.333 365.962 335.798 355.761 335.798 353.835C335.798 353.36 332.964 355.529 329.498 358.656C296.778 388.18 253.852 399.41 212.391 389.294C183.267 382.189 156.681 365.283 140.858 343.806C138.617 340.764 133.601 335.388 129.712 331.86C118.284 321.491 109.815 312.997 104.492 306.56C87.6618 286.213 75.8828 261.713 71.205 237.321C68.4293 222.85 68.057 219.076 68.1102 205.904C68.2133 180.531 73.6465 158.27 85.5186 134.585C93.6743 118.312 102.362 106.655 117.565 91.5781C122.13 87.052 125.7 83.3545 125.499 83.3626C125.297 83.3698 122.592 84.8094 119.486 86.5606ZM287.443 144.116C288.043 144.348 288.76 144.319 289.036 144.052C289.312 143.786 288.821 143.596 287.945 143.631C286.977 143.669 286.78 143.86 287.443 144.116ZM310.712 144.116C311.311 144.348 312.029 144.319 312.304 144.052C312.58 143.786 312.09 143.596 311.214 143.631C310.246 143.669 310.049 143.86 310.712 144.116ZM239.852 164.042C238.298 168.458 238.298 168.458 233.447 168.458C230.779 168.458 228.596 168.77 228.596 169.152C228.596 169.533 230.131 170.873 232.006 172.129C235.658 174.574 235.702 174.811 233.894 182.427C233.341 184.753 233.341 184.753 237.143 182.226C239.235 180.836 241.378 179.699 241.906 179.699C242.435 179.699 244.517 180.844 246.534 182.242C248.55 183.642 250.345 184.635 250.522 184.45C250.7 184.266 250.279 182.418 249.587 180.345C248.043 175.723 248.409 174.708 252.632 171.885C254.461 170.662 255.971 169.408 255.988 169.099C256.006 168.788 253.685 168.427 250.832 168.296C245.645 168.056 245.645 168.056 244.08 163.841C243.219 161.523 242.265 159.626 241.96 159.626C241.655 159.626 240.706 161.613 239.852 164.042ZM330.777 181.505C332.815 183.603 334.592 185.319 334.725 185.319C335.349 185.319 334.689 184.598 331.02 181.271C327.073 177.691 327.073 177.691 330.777 181.505ZM176.805 190.453C176.561 191.069 174.983 192.588 173.299 193.829C170.247 196.078 170.23 196.081 167.63 194.629C166.196 193.829 164.191 192.864 163.176 192.486C161.342 191.804 161.345 191.83 163.53 196.133C165.729 200.467 165.729 200.467 162.675 204.068C160.995 206.049 159.621 207.813 159.621 207.987C159.621 208.162 161.848 208.149 164.57 207.959C169.52 207.613 169.52 207.613 171.384 211.32C172.409 213.359 173.504 215.027 173.817 215.027C174.508 215.027 175.383 212.06 175.398 209.665C175.415 207.093 177.342 205.656 181.601 205.039C183.681 204.737 185.382 204.224 185.382 203.897C185.382 203.57 183.65 202.49 181.532 201.496C177.682 199.689 177.682 199.689 178.231 194.511C178.55 191.507 178.459 189.334 178.015 189.334C177.594 189.334 177.05 189.837 176.805 190.453ZM305.662 194.387C306.082 199.441 306.082 199.441 302.721 200.905C298.823 202.604 298.887 204.197 302.886 204.922C307.11 205.688 308.288 207.008 309.031 211.816C309.713 216.232 309.713 216.232 312.021 211.912C314.33 207.591 314.33 207.591 319.662 208.006C322.595 208.233 324.995 208.125 324.995 207.766C324.995 207.408 323.992 206.353 322.766 205.421C318.352 202.066 318.083 201.094 320.329 196.597C322.666 191.916 322.03 191.516 316.547 194.22C313.151 195.893 313.151 195.893 309.692 192.614C307.79 190.81 306.011 189.334 305.738 189.334C305.465 189.334 305.431 191.608 305.662 194.387ZM238.174 197.597C235.011 200.239 235.01 200.239 236.432 213.053C238.238 229.343 238.338 231.432 237.322 231.737C236.403 232.012 236.237 231.368 233.238 215.927C232.09 210.019 230.975 205.014 230.759 204.806C230.544 204.598 229.605 205.114 228.672 205.953C226.983 207.475 226.982 207.498 228.552 213.863C231.617 226.29 232.623 232.672 231.614 233.293C229.383 234.668 221.612 237.403 220.991 237.032C220.616 236.809 218.748 234.024 216.839 230.845C209.624 218.831 207.151 215.83 204.465 215.83C203.111 215.83 202.012 216.101 202.024 216.432C202.035 216.764 205.588 221.907 209.918 227.861C217.674 238.523 218.5 239.918 217.071 239.918C216.356 239.918 206.284 228.798 199.982 221.051C195.759 215.86 195.611 215.776 191.2 216.022C187.46 216.232 187.46 216.232 187.226 220.648C186.993 225.064 186.993 225.064 199.069 234.933C210.124 243.969 212.479 246.341 210.391 246.341C209.977 246.341 204.652 242.898 198.557 238.689C187.477 231.038 187.477 231.038 186.726 233.213C185.802 235.89 186.934 236.858 199.319 243.986C204.068 246.719 208.123 249.382 208.33 249.903C208.742 250.938 204.84 259.691 203.651 260.4C203.245 260.643 199.228 259.939 194.723 258.835C190.219 257.732 184.498 256.599 182.01 256.317C178.075 255.87 177.282 256.024 175.904 257.496C175.034 258.427 174.473 259.206 174.658 259.227C180.701 259.94 201.474 264.626 201.172 265.21C200.692 266.139 198.35 266.022 182.526 264.277C170.944 262.999 170.944 262.999 167.666 266.396C164.387 269.791 164.387 269.791 167.679 272.972C170.971 276.152 170.971 276.152 185.542 274.495C202.762 272.537 202.834 272.534 202.834 273.904C202.834 274.655 198.785 275.641 189.122 277.242C181.58 278.491 175.41 279.661 175.41 279.842C175.41 280.16 177.091 283.436 177.502 283.916C177.667 284.111 186.478 282.272 201.781 278.849C203.397 278.488 203.96 279.122 206.135 283.757C207.508 286.683 208.43 289.395 208.183 289.781C207.936 290.167 205.977 291.462 203.83 292.66C201.682 293.857 196.841 296.744 193.069 299.075C186.962 302.85 186.213 303.578 186.213 305.74C186.213 307.074 186.606 308.166 187.084 308.166C187.564 308.166 191.671 305.448 196.211 302.125C205.608 295.25 210.154 292.489 210.897 293.208C211.18 293.481 210.696 294.469 209.824 295.405C208.212 297.132 195.075 307.711 189.99 311.378C187.727 313.011 187.152 314.027 186.91 316.824C186.432 322.353 187.201 323.422 191.663 323.422C194.832 323.422 195.843 323.036 197.433 321.214C198.493 319.999 203.169 314.579 207.822 309.17C215.473 300.275 217.792 298.13 217.792 299.951C217.792 300.714 215.063 304.699 207.698 314.684C204.566 318.933 202.003 322.636 202.003 322.914C202.003 323.194 203.124 323.422 204.495 323.422C206.722 323.422 207.494 322.658 211.767 316.226C214.395 312.268 217.556 307.405 218.79 305.42C221.033 301.81 221.033 301.81 226.684 304.062C230.959 305.767 232.317 306.687 232.259 307.843C232.217 308.683 231.115 314.281 229.809 320.283C227.436 331.195 227.436 331.195 229.197 333.359C230.744 335.258 231.012 335.348 231.401 334.089C231.902 332.467 234.061 320.937 235.396 312.75C235.95 309.358 236.639 307.418 237.219 307.615C238.351 308.001 238.185 311.897 236.374 327.382C235.02 338.97 235.02 338.97 238.028 341.634C239.683 343.099 241.354 344.298 241.742 344.298C242.129 344.298 243.889 343.093 245.653 341.619C248.86 338.941 248.86 338.941 247.467 328.17C244.945 308.682 244.843 307.11 246.135 307.522C246.912 307.77 248.117 312.159 249.787 320.827C251.158 327.941 252.497 333.963 252.761 334.208C253.026 334.455 254.043 333.834 255.021 332.828C256.798 331 256.798 331 253.896 318.985C250.596 305.33 250.34 306.262 258.115 303.708C262.202 302.366 262.893 302.322 263.531 303.362C270.763 315.147 276.647 323.053 278.361 323.289C281.848 323.769 282.096 322.233 279.15 318.399C268.355 304.351 265.739 300.463 266.201 299.159C266.609 298.005 268.129 299.577 278.41 311.779C282.131 316.195 285.897 320.64 286.779 321.658C288.145 323.233 289.034 323.471 292.769 323.264C297.156 323.02 297.156 323.02 297.409 318.753C297.695 313.931 298.877 315.323 285.193 304.376C272.92 294.557 272.19 293.905 272.804 293.299C273.382 292.729 286.583 301.145 293.14 306.265C295.046 307.752 296.845 308.969 297.138 308.969C297.431 308.969 297.555 307.616 297.413 305.963C297.181 303.251 296.629 302.62 291.754 299.497C288.783 297.594 284.666 295.191 282.604 294.157C280.543 293.123 278.005 291.606 276.963 290.787C275.069 289.298 275.069 289.298 277.315 284.279C280.016 278.242 279.534 278.315 294.634 281.684C305.4 284.087 305.411 284.087 307.067 282.486C308.113 281.476 308.43 280.614 307.927 280.151C307.224 279.507 295.581 277.182 285.318 275.637C281.608 275.079 280.045 273.926 282.009 273.197C282.649 272.96 289.811 273.498 297.924 274.392C314.14 276.179 314.139 276.179 317.84 271.439C319.202 269.694 319.214 269.397 317.993 267.596C317.265 266.523 315.573 265.097 314.232 264.427C311.738 263.181 310.154 263.269 285.729 266.024C282.726 266.363 281.782 266.208 281.782 265.376C281.782 264.588 285.627 263.645 295.494 262.01C303.035 260.761 309.205 259.49 309.205 259.186C309.205 257.976 306.049 255.977 304.154 255.988C303.048 255.995 299.711 256.562 296.74 257.251C293.769 257.939 288.8 258.978 285.697 259.561C280.054 260.62 280.054 260.62 277.586 255.359C274.742 249.299 275.007 248.589 281.238 245.583C283.137 244.667 287.495 242.194 290.923 240.086C296.426 236.703 297.187 235.939 297.424 233.562C297.766 230.133 297.539 230.221 287.136 237.507C278.359 243.653 272.64 246.857 272.64 245.626C272.64 244.841 285.055 234.353 292.169 229.127C297.027 225.558 297.874 223.882 297.161 219.243C296.638 215.83 296.638 215.83 292.325 215.83C288.013 215.83 288.012 215.831 283.858 220.956C276.471 230.072 267.593 239.918 266.761 239.918C265.171 239.918 270.138 232.199 278.665 221.423C282.488 216.59 282.566 215.654 279.118 215.98C276.687 216.209 275.92 217.076 270.376 225.854C267.033 231.145 263.821 235.935 263.24 236.498C262.382 237.326 261.2 237.102 257.023 235.318C250.787 232.655 250.805 232.769 254.324 218.239C256.756 208.202 256.756 208.202 254.814 206.299C252.997 204.518 252.843 204.491 252.421 205.897C251.748 208.142 248.693 223.704 248.067 228.075C247.767 230.173 247.189 231.889 246.784 231.889C245.7 231.889 245.87 226.57 247.394 212.762C248.752 200.461 248.752 200.461 245.99 197.707C244.471 196.193 242.803 194.954 242.283 194.954C241.763 194.954 239.914 196.143 238.174 197.597ZM368.274 256.444C368.314 257.38 368.511 257.57 368.776 256.93C369.016 256.35 368.986 255.658 368.71 255.391C368.435 255.124 368.238 255.598 368.274 256.444ZM138.294 260.927C137.598 265.879 137.598 265.879 133.71 267.15C131.571 267.849 129.573 268.666 129.27 268.964C128.966 269.263 130.664 270.166 133.043 270.972C137.843 272.598 138.829 274.043 138.87 279.514C138.895 282.874 138.895 282.874 141.986 279.45C145.357 275.715 146.518 275.435 151.049 277.264C152.704 277.932 154.215 278.328 154.407 278.143C154.598 277.958 153.792 276.334 152.617 274.535C149.956 270.462 149.947 269.15 152.557 265.439C155.468 261.3 155.217 260.667 151.206 262.034C146.032 263.798 145.003 263.522 142.08 259.589C140.602 257.602 139.304 255.976 139.192 255.976C139.081 255.976 138.677 258.204 138.294 260.927ZM341.635 259.453C339.01 262.975 338.514 263.285 336.233 262.828C327.58 261.092 327.773 261.002 331.11 265.224C332.774 267.33 334.136 269.293 334.136 269.584C334.136 269.876 333.014 271.824 331.643 273.913C330.272 276.002 329.15 277.852 329.15 278.025C329.15 278.197 331.238 277.764 333.79 277.063C338.429 275.788 338.429 275.788 341.649 279.331C344.869 282.874 344.869 282.874 344.904 280.365C344.99 274.278 345.702 273.065 350.102 271.502C352.386 270.691 354.309 269.706 354.375 269.314C354.442 268.921 352.581 267.896 350.24 267.037C345.983 265.474 345.983 265.474 345.254 260.525C344.524 255.575 344.524 255.575 341.635 259.453ZM369.105 266.079C369.145 267.015 369.342 267.205 369.607 266.565C369.847 265.985 369.817 265.293 369.541 265.026C369.266 264.759 369.069 265.233 369.105 266.079ZM369.202 274.042C369.218 275.367 369.404 275.812 369.615 275.03C369.826 274.249 369.812 273.165 369.585 272.622C369.357 272.078 369.185 272.717 369.202 274.042ZM458.025 313.452C458.065 314.387 458.262 314.578 458.527 313.938C458.767 313.358 458.737 312.665 458.461 312.398C458.185 312.132 457.989 312.606 458.025 313.452ZM171.668 327.441C169.462 332.169 168.714 332.549 163.686 331.507C161.317 331.017 159.216 330.772 159.017 330.963C158.819 331.155 160.182 332.877 162.047 334.79C163.912 336.702 165.438 338.599 165.438 339.004C165.438 339.409 164.47 341.337 163.287 343.287C162.104 345.237 161.32 347.01 161.544 347.227C161.769 347.444 163.47 346.873 165.324 345.96C169.944 343.683 171.313 343.852 174.579 347.108C176.13 348.654 177.623 349.918 177.898 349.918C178.172 349.918 178.249 347.66 178.067 344.898C177.736 339.878 177.736 339.878 181.559 338.084C183.662 337.097 185.382 335.964 185.382 335.568C185.382 335.17 183.606 334.59 181.435 334.277C176.645 333.588 175.413 332.705 175.398 329.948C175.383 327.187 174.544 324.225 173.777 324.225C173.443 324.225 172.494 325.672 171.668 327.441ZM308.835 328.574C308.227 333.273 308.021 333.451 302.248 334.288C300.133 334.594 298.402 335.078 298.402 335.362C298.402 335.646 300.085 336.861 302.142 338.061C305.881 340.244 305.881 340.244 305.881 345.248C305.881 350.252 305.881 350.252 309.422 346.895C312.963 343.537 312.963 343.537 317.399 345.524C319.839 346.616 321.992 347.509 322.183 347.509C322.374 347.509 321.555 345.65 320.363 343.378C317.899 338.68 318.307 336.992 322.789 333.347C324.117 332.268 325.058 331.245 324.881 331.074C324.703 330.902 322.772 331.13 320.589 331.579C315.72 332.583 313.184 331.308 311.593 327.055C311.01 325.498 310.278 324.225 309.965 324.225C309.653 324.225 309.144 326.181 308.835 328.574ZM441.183 341.634C441.783 341.866 442.5 341.838 442.776 341.571C443.052 341.304 442.561 341.115 441.685 341.149C440.717 341.188 440.52 341.378 441.183 341.634ZM446.948 349.682C447.976 349.873 449.66 349.873 450.688 349.682C451.716 349.49 450.875 349.334 448.818 349.334C446.761 349.334 445.92 349.49 446.948 349.682ZM29.5647 351.051C19.9247 353.363 10.7585 359.945 5.52552 368.313C-1.58143 379.679 -1.84569 393.757 4.80835 406.453C10.2549 416.844 25.5541 425.393 38.706 425.393C62.7193 425.393 82.6482 401.808 77.0753 379.986C75.1216 372.338 71.8299 366.48 66.5454 361.248C56.9088 351.707 42.9168 347.849 29.5647 351.051ZM233.582 356.202C233.582 357.051 234.125 359.233 234.789 361.05C235.995 364.355 235.995 364.355 232.247 367.374C228.497 370.393 228.497 370.393 232.91 370.794C237.322 371.196 237.322 371.196 239.745 376.013C242.168 380.831 242.168 380.831 243.278 378.02C245.718 371.843 246.313 371.218 250.164 370.794C252.171 370.573 253.933 370.031 254.079 369.59C254.226 369.148 253 367.901 251.356 366.819C248.177 364.727 248.114 364.297 249.884 356.859C250.429 354.566 250.429 354.566 246.868 357.06C244.908 358.432 242.774 359.553 242.125 359.553C241.476 359.553 239.289 358.452 237.263 357.106C233.956 354.908 233.582 354.815 233.582 356.202ZM420.095 360.557C417.655 363.166 417.655 363.166 420.355 360.808C421.841 359.511 423.056 358.337 423.056 358.199C423.056 357.578 422.371 358.125 420.095 360.557ZM408.163 383.306C408.203 384.241 408.4 384.432 408.665 383.792C408.906 383.212 408.876 382.519 408.6 382.253C408.324 381.986 408.128 382.46 408.163 383.306ZM399.166 387.254C399.175 389.02 399.345 389.648 399.544 388.649C399.743 387.651 399.735 386.205 399.527 385.438C399.32 384.67 399.157 385.488 399.166 387.254ZM487.271 387.655C487.271 389.643 487.433 390.455 487.632 389.462C487.83 388.469 487.83 386.842 487.632 385.849C487.433 384.856 487.271 385.668 487.271 387.655ZM404.667 420.375C403.634 421.648 403.663 421.676 404.981 420.678C406.366 419.629 406.806 418.969 406.122 418.969C405.95 418.969 405.295 419.602 404.667 420.375ZM395.138 429.608C393.555 431.415 393.555 431.415 395.425 429.885C397.181 428.448 397.673 427.802 397.008 427.802C396.85 427.802 396.009 428.615 395.138 429.608ZM181.451 466.095C182.259 466.299 183.381 466.286 183.944 466.066C184.506 465.846 183.845 465.679 182.474 465.695C181.103 465.712 180.642 465.891 181.451 466.095ZM192.654 466.106C193.683 466.297 195.365 466.297 196.393 466.106C197.422 465.914 196.58 465.757 194.524 465.757C192.467 465.757 191.625 465.914 192.654 466.106ZM254.202 488.569C254.801 488.801 255.519 488.772 255.795 488.506C256.07 488.239 255.58 488.05 254.704 488.084C253.736 488.123 253.539 488.313 254.202 488.569Z" fill="#F9CE10"/>
<path fill-rule="evenodd" clip-rule="evenodd" d="M281.782 144.861C280.639 145.057 277.179 145.601 274.095 146.071C271.01 146.54 268.485 147.198 268.485 147.533C268.485 147.868 271.57 148.931 275.341 149.896C295.598 155.08 315.211 166.085 331.08 181.172C349.017 198.226 360.688 217.852 366.046 239.974C373.27 269.802 370.066 297.258 356.167 324.626C353.506 329.867 351.144 335.907 350.359 339.48C347.463 352.659 340.307 370.804 333.1 383.24C313.519 417.027 282.49 442.948 245.632 456.305C235.124 460.113 217.937 464.32 208.236 465.46C197.461 466.724 177.793 466.544 166.92 465.079C154.667 463.428 149.142 462.153 135.626 457.856C129.473 455.9 124.293 454.441 124.114 454.614C123.445 455.26 136.347 462.42 147.986 467.863C166.915 476.713 187.219 482.802 208.651 486.055C220.39 487.838 250.549 488.497 263.244 487.248C312.904 482.365 362.016 460.045 399.226 425.447C402.345 422.547 405.649 419.173 406.566 417.949C408.236 415.725 408.236 415.725 406.191 412.329C394.682 393.219 397.56 369.951 413.286 354.965C422.744 345.952 430.765 342.409 445.477 340.747C453.356 339.858 453.356 339.858 454.415 335.454C457.775 321.482 459.17 303.705 457.991 289.87C455.684 262.796 447.238 238.215 432.484 215.634C424.743 203.786 409.407 187.315 397.43 177.988C378.011 162.865 354.126 151.931 329.15 146.733C321.843 145.212 317.452 144.883 302.142 144.711C292.086 144.597 282.924 144.665 281.782 144.861ZM439.823 350.777C430.721 352.508 420.738 359.162 415.502 366.989C405.173 382.429 407.174 401.344 420.497 414.216C442.141 435.128 478.016 425.505 485.737 396.716C491.029 376.988 478.345 356.358 457.654 351.034C452.963 349.828 445.393 349.718 439.823 350.777Z" fill="#CA0E1D"/>
</svg>
